<svg xmlns="http://www.w3.org/2000/svg" viewBox="0 36 120 252" shape-rendering="crispEdges">
<rect x="72" y="36" width="12" height="12" fill="#3a2a14"/>
<rect x="84" y="36" width="12" height="12" fill="#3a2a14"/>
<rect x="60" y="48" width="12" height="12" fill="#3a2a14"/>
<rect x="72" y="48" width="12" height="12" fill="#9a6a2c"/>
<rect x="84" y="48" width="12" height="12" fill="#3a2a14"/>
<rect x="60" y="60" width="12" height="12" fill="#3a2a14"/>
<rect x="72" y="60" width="12" height="12" fill="#9a6a2c"/>
<rect x="84" y="60" width="12" height="12" fill="#3a2a14"/>
<rect x="60" y="72" width="12" height="12" fill="#3a2a14"/>
<rect x="72" y="72" width="12" height="12" fill="#3a2a14"/>
<rect x="84" y="72" width="12" height="12" fill="#3a2a14"/>
<rect x="36" y="84" width="12" height="12" fill="#3a2a14"/>
<rect x="48" y="84" width="12" height="12" fill="#3a2a14"/>
<rect x="60" y="84" width="12" height="12" fill="#ffe98a"/>
<rect x="72" y="84" width="12" height="12" fill="#ffe98a"/>
<rect x="84" y="84" width="12" height="12" fill="#3a2a14"/>
<rect x="24" y="96" width="12" height="12" fill="#3a2a14"/>
<rect x="36" y="96" width="12" height="12" fill="#ffe98a"/>
<rect x="48" y="96" width="12" height="12" fill="#ffe98a"/>
<rect x="60" y="96" width="12" height="12" fill="#ffe98a"/>
<rect x="72" y="96" width="12" height="12" fill="#3a2a14"/>
<rect x="12" y="108" width="12" height="12" fill="#3a2a14"/>
<rect x="24" y="108" width="12" height="12" fill="#ffe98a"/>
<rect x="36" y="108" width="12" height="12" fill="#ffe98a"/>
<rect x="48" y="108" width="12" height="12" fill="#e0a030"/>
<rect x="60" y="108" width="12" height="12" fill="#3a2a14"/>
<rect x="0" y="120" width="12" height="12" fill="#3a2a14"/>
<rect x="12" y="120" width="12" height="12" fill="#ffe98a"/>
<rect x="24" y="120" width="12" height="12" fill="#ffe98a"/>
<rect x="36" y="120" width="12" height="12" fill="#e0a030"/>
<rect x="48" y="120" width="12" height="12" fill="#e0a030"/>
<rect x="60" y="120" width="12" height="12" fill="#3a2a14"/>
<rect x="0" y="132" width="12" height="12" fill="#3a2a14"/>
<rect x="12" y="132" width="12" height="12" fill="#ffe98a"/>
<rect x="24" y="132" width="12" height="12" fill="#ffe98a"/>
<rect x="36" y="132" width="12" height="12" fill="#e0a030"/>
<rect x="48" y="132" width="12" height="12" fill="#e0a030"/>
<rect x="60" y="132" width="12" height="12" fill="#3a2a14"/>
<rect x="0" y="144" width="12" height="12" fill="#3a2a14"/>
<rect x="12" y="144" width="12" height="12" fill="#ffe98a"/>
<rect x="24" y="144" width="12" height="12" fill="#ffd23f"/>
<rect x="36" y="144" width="12" height="12" fill="#e0a030"/>
<rect x="48" y="144" width="12" height="12" fill="#3a2a14"/>
<rect x="0" y="156" width="12" height="12" fill="#3a2a14"/>
<rect x="12" y="156" width="12" height="12" fill="#ffe98a"/>
<rect x="24" y="156" width="12" height="12" fill="#ffd23f"/>
<rect x="36" y="156" width="12" height="12" fill="#e0a030"/>
<rect x="48" y="156" width="12" height="12" fill="#3a2a14"/>
<rect x="0" y="168" width="12" height="12" fill="#3a2a14"/>
<rect x="12" y="168" width="12" height="12" fill="#ffe98a"/>
<rect x="24" y="168" width="12" height="12" fill="#ffd23f"/>
<rect x="36" y="168" width="12" height="12" fill="#e0a030"/>
<rect x="48" y="168" width="12" height="12" fill="#3a2a14"/>
<rect x="0" y="180" width="12" height="12" fill="#3a2a14"/>
<rect x="12" y="180" width="12" height="12" fill="#ffe98a"/>
<rect x="24" y="180" width="12" height="12" fill="#ffd23f"/>
<rect x="36" y="180" width="12" height="12" fill="#e0a030"/>
<rect x="48" y="180" width="12" height="12" fill="#3a2a14"/>
<rect x="0" y="192" width="12" height="12" fill="#3a2a14"/>
<rect x="12" y="192" width="12" height="12" fill="#ffe98a"/>
<rect x="24" y="192" width="12" height="12" fill="#ffd23f"/>
<rect x="36" y="192" width="12" height="12" fill="#e0a030"/>
<rect x="48" y="192" width="12" height="12" fill="#3a2a14"/>
<rect x="0" y="204" width="12" height="12" fill="#3a2a14"/>
<rect x="12" y="204" width="12" height="12" fill="#ffe98a"/>
<rect x="24" y="204" width="12" height="12" fill="#ffd23f"/>
<rect x="36" y="204" width="12" height="12" fill="#e0a030"/>
<rect x="48" y="204" width="12" height="12" fill="#e0a030"/>
<rect x="60" y="204" width="12" height="12" fill="#3a2a14"/>
<rect x="0" y="216" width="12" height="12" fill="#3a2a14"/>
<rect x="12" y="216" width="12" height="12" fill="#ffe98a"/>
<rect x="24" y="216" width="12" height="12" fill="#ffe98a"/>
<rect x="36" y="216" width="12" height="12" fill="#ffd23f"/>
<rect x="48" y="216" width="12" height="12" fill="#e0a030"/>
<rect x="60" y="216" width="12" height="12" fill="#3a2a14"/>
<rect x="0" y="228" width="12" height="12" fill="#3a2a14"/>
<rect x="12" y="228" width="12" height="12" fill="#ffe98a"/>
<rect x="24" y="228" width="12" height="12" fill="#ffe98a"/>
<rect x="36" y="228" width="12" height="12" fill="#ffd23f"/>
<rect x="48" y="228" width="12" height="12" fill="#e0a030"/>
<rect x="60" y="228" width="12" height="12" fill="#e0a030"/>
<rect x="72" y="228" width="12" height="12" fill="#3a2a14"/>
<rect x="12" y="240" width="12" height="12" fill="#3a2a14"/>
<rect x="24" y="240" width="12" height="12" fill="#ffe98a"/>
<rect x="36" y="240" width="12" height="12" fill="#ffe98a"/>
<rect x="48" y="240" width="12" height="12" fill="#ffd23f"/>
<rect x="60" y="240" width="12" height="12" fill="#e0a030"/>
<rect x="72" y="240" width="12" height="12" fill="#e0a030"/>
<rect x="84" y="240" width="12" height="12" fill="#3a2a14"/>
<rect x="24" y="252" width="12" height="12" fill="#3a2a14"/>
<rect x="36" y="252" width="12" height="12" fill="#ffe98a"/>
<rect x="48" y="252" width="12" height="12" fill="#ffe98a"/>
<rect x="60" y="252" width="12" height="12" fill="#ffe98a"/>
<rect x="72" y="252" width="12" height="12" fill="#e0a030"/>
<rect x="84" y="252" width="12" height="12" fill="#e0a030"/>
<rect x="96" y="252" width="12" height="12" fill="#3a2a14"/>
<rect x="36" y="264" width="12" height="12" fill="#3a2a14"/>
<rect x="48" y="264" width="12" height="12" fill="#3a2a14"/>
<rect x="60" y="264" width="12" height="12" fill="#ffe98a"/>
<rect x="72" y="264" width="12" height="12" fill="#ffe98a"/>
<rect x="84" y="264" width="12" height="12" fill="#ffe98a"/>
<rect x="96" y="264" width="12" height="12" fill="#ffe98a"/>
<rect x="108" y="264" width="12" height="12" fill="#3a2a14"/>
<rect x="60" y="276" width="12" height="12" fill="#3a2a14"/>
<rect x="72" y="276" width="12" height="12" fill="#3a2a14"/>
<rect x="84" y="276" width="12" height="12" fill="#3a2a14"/>
<rect x="96" y="276" width="12" height="12" fill="#3a2a14"/>
</svg>